# xmcd
#
# Track frame offsets:
#	180
#	21748
#	49583
#	67727
#	88956
#	127737
#	155120
#	171829
#	189297
#	205723
#	234114
#
# Disc length: 3309 seconds
#
# Revision: 1
# Processed by: cddbd v1.5.1PL2 Copyright (c) Steve Scherf et al.
# Submitted via: audiograbber 1.83.01
#
DISCID=890ceb0b
DTITLE=The Barbara Best Singers - Swing Low
DYEAR=1994
DGENRE=Gospel
TTITLE0=Get Away Jordan
TTITLE1=Swing Low Swing Down Chariot
TTITLE2=I've Decided To Make Jesus My Choice
TTITLE3=Stand By Me
TTITLE4=Fix Me Jesus
TTITLE5=Something Got A Hold Of Me
TTITLE6=Done Made My Vow
TTITLE7=Jesus He Is My King
TTITLE8=I've Found A New Doctor
TTITLE9=Somebody Touched Me
TTITLE10=I Love To Praise Him
EXTD=
EXTT0=
EXTT1=
EXTT2=
EXTT3=
EXTT4=
EXTT5=
EXTT6=
EXTT7=
EXTT8=
EXTT9=
EXTT10=
PLAYORDER=
